<svg xmlns="http://www.w3.org/2000/svg" width="1024" height="1024" viewBox="0 0 1024 1024">
  <rect width="1024" height="1024" fill="#FBF7F1"/>
  <g>
    <path d="M512 512 C467 422 476 359 512 332 C548 359 557 422 512 512 Z" fill="#C2410C"/>
    <path d="M512 512 C467 422 476 359 512 332 C548 359 557 422 512 512 Z" fill="#E0922E" transform="rotate(72 512 512)"/>
    <path d="M512 512 C467 422 476 359 512 332 C548 359 557 422 512 512 Z" fill="#D98C6A" transform="rotate(144 512 512)"/>
    <path d="M512 512 C467 422 476 359 512 332 C548 359 557 422 512 512 Z" fill="#C56B7A" transform="rotate(216 512 512)"/>
    <path d="M512 512 C467 422 476 359 512 332 C548 359 557 422 512 512 Z" fill="#6E8E7B" transform="rotate(288 512 512)"/>
  </g>
  <circle cx="512" cy="512" r="27" fill="#FBF7F1"/>
</svg>
